{"title":"Waterworld 1995 The Ulysses Cut Revised Edition DVDRip XviD MP3","uid":11867262,"size":1572478782,"categoryP":"video","categoryS":"movies","magnet":"?xt=urn:btih:af5e642449a930e6c5e9b49ef118ce1bf98b432d&amp;dn=Waterworld+1995+The+Ulysses+Cut+Revised+Edition+DVDRip+XviD+MP3+&amp;tr=udp%3A%2F%2Ftracker.openbittorrent.com%3A80&amp;tr=udp%3A%2F%2Fopen.demonii.com%3A1337&amp;tr=udp%3A%2F%2Ftracker.coppersurfer.tk%3A6969&amp;tr=udp%3A%2F%2Fexodus.desync.com%3A6969","seeders":2,"leechers":2,"uploader":"Satafakap","files":5,"time":1430390095,"description":"Synopsis / Plot\n\nIn a future where the polar ice-caps have melted and Earth is almost entirely submerged, a mutated mariner fights starvation and outlaw &quot;smokers,&quot; and reluctantly helps a woman and a young girl try to find dry land.\n\nDirector: Kevin Reynolds\nWriters: Peter Rader, David Twohy\nStars: Kevin Costner, Jeanne Tripplehorn, Dennis Hopper\n &lt;a href=&quot;\nhttp://www.imdb.com/title/tt0114898/&quot; rel=&quot;nofollow&quot; target=&quot;_NEW&quot;&gt;\nhttp://www.imdb.com/title/tt0114898/&lt;/a&gt;\n\nGeneral\n\nComplete name       : Waterworld.1995.The.Ulysses.Cut.Revised.Edition.DVDRip.XviD.MP3.-Idiocracy.avi\nFormat              : AVI\nFormat/Info         : Audio Video Interleave\nFile size           : 1.45 GiB\nDuration            : 2h 57mn\nOverall bit rate    : 1 168 Kbps\nWriting application : VirtualDubMod 1.5.10.3 | www.virtualdub-fr.org\nWriting library     : VirtualDubMod build 2550/release\nSource              : Waterworld.-.The.Ulysses.Cut.Revised.Edition.1995.German.AC3D.ML.PAL.DVD9-Sarutobi - Thanks!\nSample              : Yes\n\nVideo\n\nID                                       : 0\nFormat                                   : MPEG-4 Visual\nFormat profile                           : Advanced Simple@L5\nFormat settings, BVOP                    : 2\nFormat settings, QPel                    : No\nFormat settings, GMC                     : No warppoints\nFormat settings, Matrix                  : Default (H.263)\nCodec ID                                 : XVID\nCodec ID/Hint                            : XviD\nDuration                                 : 2h 57mn\nBit rate                                 : 1 031 Kbps\nWidth                                    : 640 pixels\nHeight                                   : 336 pixels\nDisplay aspect ratio                     : 1.905\nFrame rate                               : 23.976 fps\nColor space                              : YUV\nChroma subsampling                       : 4:2:0\nBit depth                                : 8 bits\nScan type                                : Progressive\nCompression mode                         : Lossy\nBits/(Pixel*Frame)                       : 0.200\nStream size                              : 1.28 GiB (88%)\nWriting library                          : XviD 1.2.1 (UTC 2008-12-04)\n\nAudio\n\nID                                       : 1\nFormat                                   : MPEG Audio\nFormat version                           : Version 1\nFormat profile                           : Layer 3\nCodec ID                                 : 55\nCodec ID/Hint                            : MP3\nDuration                                 : 2h 57mn\nBit rate mode                            : Constant\nBit rate                                 : 128 Kbps\nChannel(s)                               : 2 channels\nSampling rate                            : 48.0 KHz\nCompression mode                         : Lossy\nStream size                              : 163 MiB (11%)\nAlignment                                : Aligned on interleaves\nInterleave, duration                     : 42 ms (1.00 video frame)\nInterleave, preload duration             : 504 ms\nWriting library                          : LAME3.99r\nEncoding settings                        : -m s -V 4 -q 0 -lowpass 17 -b 128\n\nScreenshots:\n &lt;a href=&quot;\nhttp://i.imgur.com/ODmmt1U.jpg&quot; rel=&quot;nofollow&quot; target=&quot;_NEW&quot;&gt;\nhttp://i.imgur.com/ODmmt1U.jpg&lt;/a&gt;\n &lt;a href=&quot;\nhttp://i.imgur.com/uX3SCHs.jpg&quot; rel=&quot;nofollow&quot; target=&quot;_NEW&quot;&gt;\nhttp://i.imgur.com/uX3SCHs.jpg&lt;/a&gt;\n &lt;a href=&quot;\nhttp://i.imgur.com/2GKKTA8.jpg&quot; rel=&quot;nofollow&quot; target=&quot;_NEW&quot;&gt;\nhttp://i.imgur.com/2GKKTA8.jpg&lt;/a&gt;\n &lt;a href=&quot;\nhttp://i.imgur.com/pHNxHpB.jpg&quot; rel=&quot;nofollow&quot; target=&quot;_NEW&quot;&gt;\nhttp://i.imgur.com/pHNxHpB.jpg&lt;/a&gt;\n &lt;a href=&quot;\nhttp://i.imgur.com/FNDGBuZ.jpg&quot; rel=&quot;nofollow&quot; target=&quot;_NEW&quot;&gt;\nhttp://i.imgur.com/FNDGBuZ.jpg&lt;/a&gt;\n\nComparison:\n &lt;a href=&quot;\nhttp://i.imgur.com/7di4BJG.jpg&quot; rel=&quot;nofollow&quot; target=&quot;_NEW&quot;&gt;\nhttp://i.imgur.com/7di4BJG.jpg&lt;/a&gt;\n &lt;a href=&quot;\nhttp://i.imgur.com/fl1OGH4.jpg&quot; rel=&quot;nofollow&quot; target=&quot;_NEW&quot;&gt;\nhttp://i.imgur.com/fl1OGH4.jpg&lt;/a&gt;\n &lt;a href=&quot;\nhttp://i.imgur.com/JrEsMM4.jpg&quot; rel=&quot;nofollow&quot; target=&quot;_NEW&quot;&gt;\nhttp://i.imgur.com/JrEsMM4.jpg&lt;/a&gt;\n &lt;a href=&quot;\nhttp://i.imgur.com/Jmmaaml.jpg&quot; rel=&quot;nofollow&quot; target=&quot;_NEW&quot;&gt;\nhttp://i.imgur.com/Jmmaaml.jpg&lt;/a&gt;\n &lt;a href=&quot;\nhttp://i.imgur.com/CZQhDCS.jpg&quot; rel=&quot;nofollow&quot; target=&quot;_NEW&quot;&gt;\nhttp://i.imgur.com/CZQhDCS.jpg&lt;/a&gt;\n &lt;a href=&quot;\nhttp://i.imgur.com/ibqbqVI.jpg&quot; rel=&quot;nofollow&quot; target=&quot;_NEW&quot;&gt;\nhttp://i.imgur.com/ibqbqVI.jpg&lt;/a&gt;\n &lt;a href=&quot;\nhttp://i.imgur.com/O0sjbyW.jpg&quot; rel=&quot;nofollow&quot; target=&quot;_NEW&quot;&gt;\nhttp://i.imgur.com/O0sjbyW.jpg&lt;/a&gt;\n &lt;a href=&quot;\nhttp://i.imgur.com/curcuou.jpg&quot; rel=&quot;nofollow&quot; target=&quot;_NEW&quot;&gt;\nhttp://i.imgur.com/curcuou.jpg&lt;/a&gt;\n &lt;a href=&quot;\nhttp://i.imgur.com/lR8Bx4G.jpg&quot; rel=&quot;nofollow&quot; target=&quot;_NEW&quot;&gt;\nhttp://i.imgur.com/lR8Bx4G.jpg&lt;/a&gt;\n &lt;a href=&quot;\nhttp://i.imgur.com/48tYoq6.jpg&quot; rel=&quot;nofollow&quot; target=&quot;_NEW&quot;&gt;\nhttp://i.imgur.com/48tYoq6.jpg&lt;/a&gt;\n &lt;a href=&quot;\nhttp://i.imgur.com/Q7xdOD1.jpg&quot; rel=&quot;nofollow&quot; target=&quot;_NEW&quot;&gt;\nhttp://i.imgur.com/Q7xdOD1.jpg&lt;/a&gt;\n\n[img]http://i.imgur.com/Q7xdOD1.jpg[/img]","torrent":{"xt":"urn:btih:af5e642449a930e6c5e9b49ef118ce1bf98b432d","amp;dn":"Waterworld+1995+The+Ulysses+Cut+Revised+Edition+DVDRip+XviD+MP3+","amp;tr":["udp%3A%2F%2Ftracker.openbittorrent.com%3A80","udp%3A%2F%2Fopen.demonii.com%3A1337","udp%3A%2F%2Ftracker.coppersurfer.tk%3A6969","udp%3A%2F%2Fexodus.desync.com%3A6969"],"infoHash":"af5e642449a930e6c5e9b49ef118ce1bf98b432d","infoHashBuffer":{"type":"Buffer","data":[175,94,100,36,73,169,48,230,197,233,180,158,241,24,206,27,249,139,67,45]},"announce":[],"urlList":[]}}